<svg xmlns="http://www.w3.org/2000/svg" width="1200" height="900" viewBox="0 0 1200 900"><defs><linearGradient id="g" x1="0" x2="1"><stop stop-color="#f4f0e8"/><stop offset="1" stop-color="#ffffff"/></linearGradient><filter id="s" x="-20%" y="-20%" width="140%" height="140%"><feDropShadow dx="0" dy="24" stdDeviation="25" flood-opacity=".18"/></filter></defs><rect width="1200" height="900" fill="#fbfbfa"/><g opacity=".35"><path d="M0 680 C220 600 360 760 590 670 S960 575 1200 650 V900 H0Z" fill="#eef0f1"/></g><g filter="url(#s)"><path d="M235 170 L470 110 L650 220 L410 285 Z" fill="#f6f6f4" stroke="#c4c4c4"/><path d="M235 170 L410 285 L410 620 L235 490 Z" fill="url(#g)" stroke="#c4c4c4"/><path d="M410 285 L650 220 L650 525 L410 620 Z" fill="#ececea" stroke="#c4c4c4"/><rect x="282" y="300" width="260" height="130" rx="14" fill="#3d405b" opacity=".92"/><text x="412" y="355" font-size="28" text-anchor="middle" fill="white" font-family="Arial">CUSTOM</text><text x="412" y="392" font-size="22" text-anchor="middle" fill="white" font-family="Arial">PACKAGING</text></g><text x="600" y="790" font-size="44" text-anchor="middle" fill="#1d1d1f" font-family="Arial, sans-serif" font-weight="700">Books Catalogs Manuals</text><text x="600" y="835" font-size="24" text-anchor="middle" fill="#777" font-family="Arial">OEM / ODM • MOQ 500 • Factory Direct</text></svg>