<svg xmlns="http://www.w3.org/2000/svg" width="1200" height="900" viewBox="0 0 1200 900"><defs><linearGradient id="g" x1="0" x2="1"><stop stop-color="#ded7cf"/><stop offset="1" stop-color="#ffffff"/></linearGradient><filter id="s" x="-20%" y="-20%" width="140%" height="140%"><feDropShadow dx="0" dy="24" stdDeviation="25" flood-opacity=".18"/></filter></defs><rect width="1200" height="900" fill="#fbfbfa"/><g opacity=".35"><path d="M0 680 C220 600 360 760 590 670 S960 575 1200 650 V900 H0Z" fill="#eef0f1"/></g><g filter="url(#s)"><path d="M330 95 Q420 70 510 95 L555 610 Q445 665 285 610 Z" fill="url(#g)" stroke="#c8c8c8" stroke-width="3"/><path d="M315 600 Q420 650 565 600 L590 675 Q435 735 260 675 Z" fill="#d9d9d7"/><rect x="355" y="170" width="155" height="82" rx="18" fill="#2b593f" opacity=".94"/><text x="432" y="220" font-size="28" text-anchor="middle" fill="white" font-family="Arial">OEM</text><rect x="355" y="285" width="160" height="180" rx="8" fill="white" opacity=".75"/><text x="435" y="340" font-size="24" text-anchor="middle" fill="#333" font-family="Arial">CUSTOM</text><text x="435" y="375" font-size="18" text-anchor="middle" fill="#666" font-family="Arial">POUCH</text></g><text x="600" y="790" font-size="44" text-anchor="middle" fill="#1d1d1f" font-family="Arial, sans-serif" font-weight="700">Pet Food Stand Up Pouches Detail View</text><text x="600" y="835" font-size="24" text-anchor="middle" fill="#777" font-family="Arial">OEM / ODM • MOQ 500 • Factory Direct</text></svg>